<svg xmlns="http://www.w3.org/2000/svg" xmlns:xlink="http://www.w3.org/1999/xlink" width="500" zoomAndPan="magnify" viewBox="0 0 375 374.999991" height="500" preserveAspectRatio="xMidYMid meet" version="1.0"><defs><g/></defs><g fill="#f79e00" fill-opacity="1"><g transform="translate(1.535438, 220.003933)"><g><path d="M 60.890625 -29.5625 C 60.890625 -28.226562 60.4375 -27.125 59.53125 -26.25 C 58.625 -25.382812 57.472656 -24.953125 56.078125 -24.953125 L 16.25 -24.953125 C 17.019531 -20.054688 19.238281 -16.101562 22.90625 -13.09375 C 26.570312 -10.09375 31.0625 -8.59375 36.375 -8.59375 C 38.46875 -8.59375 40.648438 -8.976562 42.921875 -9.75 C 45.191406 -10.519531 47.0625 -11.460938 48.53125 -12.578125 C 49.507812 -13.347656 50.660156 -13.734375 51.984375 -13.734375 C 53.316406 -13.734375 54.363281 -13.382812 55.125 -12.6875 C 56.382812 -11.632812 57.015625 -10.445312 57.015625 -9.125 C 57.015625 -7.863281 56.457031 -6.8125 55.34375 -5.96875 C 52.96875 -4.082031 50.015625 -2.546875 46.484375 -1.359375 C 42.953125 -0.171875 39.582031 0.421875 36.375 0.421875 C 30.644531 0.421875 25.507812 -0.816406 20.96875 -3.296875 C 16.425781 -5.773438 12.878906 -9.21875 10.328125 -13.625 C 7.773438 -18.03125 6.5 -23.023438 6.5 -28.609375 C 6.5 -34.203125 7.703125 -39.21875 10.109375 -43.65625 C 12.523438 -48.09375 15.878906 -51.550781 20.171875 -54.03125 C 24.472656 -56.507812 29.347656 -57.75 34.796875 -57.75 C 40.179688 -57.75 44.828125 -56.5625 48.734375 -54.1875 C 52.648438 -51.8125 55.65625 -48.492188 57.75 -44.234375 C 59.84375 -39.972656 60.890625 -35.082031 60.890625 -29.5625 Z M 34.796875 -48.734375 C 29.691406 -48.734375 25.550781 -47.335938 22.375 -44.546875 C 19.195312 -41.753906 17.1875 -38.015625 16.34375 -33.328125 L 51.25 -33.328125 C 50.625 -38.015625 48.878906 -41.753906 46.015625 -44.546875 C 43.148438 -47.335938 39.410156 -48.734375 34.796875 -48.734375 Z M 34.796875 -48.734375 "/></g></g></g><g fill="#f79e00" fill-opacity="1"><g transform="translate(66.62307, 220.003933)"><g><path d="M 37.9375 -57.859375 C 42.757812 -57.859375 47.09375 -56.804688 50.9375 -54.703125 C 54.78125 -52.609375 57.785156 -49.550781 59.953125 -45.53125 C 62.117188 -41.519531 63.203125 -36.6875 63.203125 -31.03125 L 63.203125 -5.234375 C 63.203125 -3.703125 62.691406 -2.425781 61.671875 -1.40625 C 60.660156 -0.394531 59.390625 0.109375 57.859375 0.109375 C 56.316406 0.109375 55.039062 -0.394531 54.03125 -1.40625 C 53.019531 -2.425781 52.515625 -3.703125 52.515625 -5.234375 L 52.515625 -31.03125 C 52.515625 -36.6875 50.992188 -40.960938 47.953125 -43.859375 C 44.910156 -46.765625 40.875 -48.21875 35.84375 -48.21875 C 32.90625 -48.21875 30.234375 -47.625 27.828125 -46.4375 C 25.421875 -45.25 23.535156 -43.640625 22.171875 -41.609375 C 20.804688 -39.585938 20.125 -37.316406 20.125 -34.796875 L 20.125 -5.234375 C 20.125 -3.703125 19.632812 -2.425781 18.65625 -1.40625 C 17.675781 -0.394531 16.382812 0.109375 14.78125 0.109375 C 13.238281 0.109375 11.960938 -0.394531 10.953125 -1.40625 C 9.941406 -2.425781 9.4375 -3.703125 9.4375 -5.234375 L 9.4375 -51.984375 C 9.4375 -53.585938 9.941406 -54.878906 10.953125 -55.859375 C 11.960938 -56.835938 13.238281 -57.328125 14.78125 -57.328125 C 16.382812 -57.328125 17.675781 -56.835938 18.65625 -55.859375 C 19.632812 -54.878906 20.125 -53.585938 20.125 -51.984375 L 20.125 -50.828125 C 22.363281 -53.066406 25.019531 -54.796875 28.09375 -56.015625 C 31.164062 -57.242188 34.445312 -57.859375 37.9375 -57.859375 Z M 37.9375 -57.859375 "/></g></g></g><g fill="#f79e00" fill-opacity="1"><g transform="translate(138.10416, 220.003933)"><g><path d="M 33.859375 -10.484375 C 35.109375 -10.484375 36.171875 -9.992188 37.046875 -9.015625 C 37.921875 -8.035156 38.359375 -6.773438 38.359375 -5.234375 C 38.359375 -3.703125 37.78125 -2.445312 36.625 -1.46875 C 35.476562 -0.488281 33.992188 0 32.171875 0 L 30.296875 0 C 26.867188 0 23.738281 -0.890625 20.90625 -2.671875 C 18.082031 -4.453125 15.863281 -6.878906 14.25 -9.953125 C 12.644531 -13.023438 11.84375 -16.484375 11.84375 -20.328125 L 11.84375 -46.21875 L 7.015625 -46.21875 C 5.554688 -46.21875 4.367188 -46.632812 3.453125 -47.46875 C 2.546875 -48.3125 2.09375 -49.363281 2.09375 -50.625 C 2.09375 -52.019531 2.546875 -53.132812 3.453125 -53.96875 C 4.367188 -54.8125 5.554688 -55.234375 7.015625 -55.234375 L 11.84375 -55.234375 L 11.84375 -70.328125 C 11.84375 -71.867188 12.332031 -73.125 13.3125 -74.09375 C 14.289062 -75.070312 15.546875 -75.5625 17.078125 -75.5625 C 18.617188 -75.5625 19.878906 -75.070312 20.859375 -74.09375 C 21.835938 -73.125 22.328125 -71.867188 22.328125 -70.328125 L 22.328125 -55.234375 L 31.234375 -55.234375 C 32.703125 -55.234375 33.890625 -54.8125 34.796875 -53.96875 C 35.703125 -53.132812 36.15625 -52.019531 36.15625 -50.625 C 36.15625 -49.363281 35.703125 -48.3125 34.796875 -47.46875 C 33.890625 -46.632812 32.703125 -46.21875 31.234375 -46.21875 L 22.328125 -46.21875 L 22.328125 -20.328125 C 22.328125 -17.535156 23.09375 -15.195312 24.625 -13.3125 C 26.164062 -11.425781 28.054688 -10.484375 30.296875 -10.484375 Z M 33.859375 -10.484375 "/></g></g></g><g fill="#f79e00" fill-opacity="1"><g transform="translate(180.133363, 220.003933)"><g><path d="M 37.9375 -57.859375 C 42.757812 -57.859375 47.09375 -56.804688 50.9375 -54.703125 C 54.78125 -52.609375 57.785156 -49.550781 59.953125 -45.53125 C 62.117188 -41.519531 63.203125 -36.6875 63.203125 -31.03125 L 63.203125 -5.234375 C 63.203125 -3.703125 62.691406 -2.425781 61.671875 -1.40625 C 60.660156 -0.394531 59.390625 0.109375 57.859375 0.109375 C 56.316406 0.109375 55.039062 -0.394531 54.03125 -1.40625 C 53.019531 -2.425781 52.515625 -3.703125 52.515625 -5.234375 L 52.515625 -31.03125 C 52.515625 -36.6875 50.992188 -40.960938 47.953125 -43.859375 C 44.910156 -46.765625 40.875 -48.21875 35.84375 -48.21875 C 32.90625 -48.21875 30.234375 -47.625 27.828125 -46.4375 C 25.421875 -45.25 23.535156 -43.640625 22.171875 -41.609375 C 20.804688 -39.585938 20.125 -37.316406 20.125 -34.796875 L 20.125 -5.234375 C 20.125 -3.703125 19.632812 -2.425781 18.65625 -1.40625 C 17.675781 -0.394531 16.382812 0.109375 14.78125 0.109375 C 13.238281 0.109375 11.960938 -0.394531 10.953125 -1.40625 C 9.941406 -2.425781 9.4375 -3.703125 9.4375 -5.234375 L 9.4375 -76.515625 C 9.4375 -78.117188 9.941406 -79.410156 10.953125 -80.390625 C 11.960938 -81.367188 13.238281 -81.859375 14.78125 -81.859375 C 16.382812 -81.859375 17.675781 -81.367188 18.65625 -80.390625 C 19.632812 -79.410156 20.125 -78.117188 20.125 -76.515625 L 20.125 -50.828125 C 22.363281 -53.066406 25.019531 -54.796875 28.09375 -56.015625 C 31.164062 -57.242188 34.445312 -57.859375 37.9375 -57.859375 Z M 37.9375 -57.859375 "/></g></g></g><g fill="#f79e00" fill-opacity="1"><g transform="translate(251.719276, 220.003933)"><g><path d="M 37.515625 -57.96875 C 41.222656 -57.96875 44.125 -57.40625 46.21875 -56.28125 C 48.3125 -55.164062 49.359375 -53.769531 49.359375 -52.09375 C 49.359375 -51.601562 49.328125 -51.253906 49.265625 -51.046875 C 48.628906 -48.804688 47.226562 -47.6875 45.0625 -47.6875 C 44.71875 -47.6875 44.195312 -47.757812 43.5 -47.90625 C 40.695312 -48.394531 38.425781 -48.640625 36.6875 -48.640625 C 31.65625 -48.640625 27.601562 -47.484375 24.53125 -45.171875 C 21.457031 -42.867188 19.921875 -39.757812 19.921875 -35.84375 L 19.921875 -5.234375 C 19.921875 -3.554688 19.484375 -2.265625 18.609375 -1.359375 C 17.734375 -0.453125 16.421875 0 14.671875 0 C 12.992188 0 11.703125 -0.4375 10.796875 -1.3125 C 9.890625 -2.1875 9.4375 -3.492188 9.4375 -5.234375 L 9.4375 -52.09375 C 9.4375 -53.769531 9.890625 -55.0625 10.796875 -55.96875 C 11.703125 -56.875 12.992188 -57.328125 14.671875 -57.328125 C 18.171875 -57.328125 19.921875 -55.582031 19.921875 -52.09375 L 19.921875 -50.09375 C 22.015625 -52.539062 24.597656 -54.460938 27.671875 -55.859375 C 30.742188 -57.265625 34.023438 -57.96875 37.515625 -57.96875 Z M 37.515625 -57.96875 "/></g></g></g><g fill="#f79e00" fill-opacity="1"><g transform="translate(302.657411, 220.003933)"><g><path d="M 35.421875 -57.75 C 40.804688 -57.75 45.679688 -56.472656 50.046875 -53.921875 C 54.410156 -51.367188 57.867188 -47.875 60.421875 -43.4375 C 62.972656 -39.007812 64.25 -34.066406 64.25 -28.609375 L 64.25 -5.234375 C 64.25 -3.703125 63.738281 -2.425781 62.71875 -1.40625 C 61.707031 -0.394531 60.4375 0.109375 58.90625 0.109375 C 57.363281 0.109375 56.085938 -0.394531 55.078125 -1.40625 C 54.066406 -2.425781 53.5625 -3.703125 53.5625 -5.234375 L 53.5625 -9.125 C 51.113281 -6.113281 48.140625 -3.769531 44.640625 -2.09375 C 41.148438 -0.414062 37.378906 0.421875 33.328125 0.421875 C 28.296875 0.421875 23.734375 -0.832031 19.640625 -3.34375 C 15.554688 -5.863281 12.34375 -9.34375 10 -13.78125 C 7.664062 -18.21875 6.5 -23.160156 6.5 -28.609375 C 6.5 -34.066406 7.753906 -39.007812 10.265625 -43.4375 C 12.785156 -47.875 16.265625 -51.367188 20.703125 -53.921875 C 25.140625 -56.472656 30.046875 -57.75 35.421875 -57.75 Z M 35.421875 -9.015625 C 38.921875 -9.015625 42.082031 -9.867188 44.90625 -11.578125 C 47.738281 -13.296875 49.957031 -15.640625 51.5625 -18.609375 C 53.175781 -21.578125 53.984375 -24.910156 53.984375 -28.609375 C 53.984375 -32.316406 53.175781 -35.671875 51.5625 -38.671875 C 49.957031 -41.679688 47.738281 -44.039062 44.90625 -45.75 C 42.082031 -47.457031 38.921875 -48.3125 35.421875 -48.3125 C 31.929688 -48.3125 28.769531 -47.457031 25.9375 -45.75 C 23.113281 -44.039062 20.878906 -41.679688 19.234375 -38.671875 C 17.585938 -35.671875 16.765625 -32.316406 16.765625 -28.609375 C 16.765625 -24.910156 17.585938 -21.578125 19.234375 -18.609375 C 20.878906 -15.640625 23.113281 -13.296875 25.9375 -11.578125 C 28.769531 -9.867188 31.929688 -9.015625 35.421875 -9.015625 Z M 35.421875 -9.015625 "/></g></g></g></svg>