<svg xmlns="http://www.w3.org/2000/svg" xmlns:xlink="http://www.w3.org/1999/xlink" width="500" zoomAndPan="magnify" viewBox="0 0 375 93.749996" height="125" preserveAspectRatio="xMidYMid meet" version="1.0"><defs><g/></defs><g fill="#000000" fill-opacity="1"><g transform="translate(50.205965, 71.460232)"><g><path d="M 45.484375 -22.078125 C 45.484375 -21.085938 45.144531 -20.265625 44.46875 -19.609375 C 43.789062 -18.953125 42.925781 -18.625 41.875 -18.625 L 12.140625 -18.625 C 12.710938 -14.976562 14.367188 -12.03125 17.109375 -9.78125 C 19.847656 -7.539062 23.195312 -6.421875 27.15625 -6.421875 C 28.726562 -6.421875 30.359375 -6.707031 32.046875 -7.28125 C 33.742188 -7.851562 35.144531 -8.554688 36.25 -9.390625 C 36.976562 -9.960938 37.835938 -10.25 38.828125 -10.25 C 39.816406 -10.25 40.597656 -9.988281 41.171875 -9.46875 C 42.109375 -8.6875 42.578125 -7.800781 42.578125 -6.8125 C 42.578125 -5.875 42.160156 -5.09375 41.328125 -4.46875 C 39.554688 -3.050781 37.351562 -1.898438 34.71875 -1.015625 C 32.082031 -0.128906 29.5625 0.3125 27.15625 0.3125 C 22.882812 0.3125 19.050781 -0.613281 15.65625 -2.46875 C 12.257812 -4.320312 9.609375 -6.890625 7.703125 -10.171875 C 5.804688 -13.460938 4.859375 -17.195312 4.859375 -21.375 C 4.859375 -25.550781 5.753906 -29.296875 7.546875 -32.609375 C 9.347656 -35.921875 11.851562 -38.503906 15.0625 -40.359375 C 18.28125 -42.210938 21.921875 -43.140625 25.984375 -43.140625 C 30.003906 -43.140625 33.472656 -42.25 36.390625 -40.46875 C 39.316406 -38.695312 41.5625 -36.21875 43.125 -33.03125 C 44.695312 -29.851562 45.484375 -26.203125 45.484375 -22.078125 Z M 25.984375 -36.40625 C 22.179688 -36.40625 19.09375 -35.359375 16.71875 -33.265625 C 14.34375 -31.179688 12.84375 -28.390625 12.21875 -24.890625 L 38.28125 -24.890625 C 37.8125 -28.390625 36.503906 -31.179688 34.359375 -33.265625 C 32.222656 -35.359375 29.429688 -36.40625 25.984375 -36.40625 Z M 25.984375 -36.40625 "/></g></g></g><g fill="#000000" fill-opacity="1"><g transform="translate(98.812759, 71.460232)"><g><path d="M 28.34375 -43.21875 C 31.9375 -43.21875 35.164062 -42.429688 38.03125 -40.859375 C 40.90625 -39.296875 43.148438 -37.015625 44.765625 -34.015625 C 46.390625 -31.015625 47.203125 -27.398438 47.203125 -23.171875 L 47.203125 -3.90625 C 47.203125 -2.757812 46.820312 -1.804688 46.0625 -1.046875 C 45.3125 -0.296875 44.363281 0.078125 43.21875 0.078125 C 42.0625 0.078125 41.101562 -0.296875 40.34375 -1.046875 C 39.59375 -1.804688 39.21875 -2.757812 39.21875 -3.90625 L 39.21875 -23.171875 C 39.21875 -27.398438 38.082031 -30.597656 35.8125 -32.765625 C 33.539062 -34.929688 30.523438 -36.015625 26.765625 -36.015625 C 24.578125 -36.015625 22.582031 -35.566406 20.78125 -34.671875 C 18.976562 -33.785156 17.566406 -32.585938 16.546875 -31.078125 C 15.535156 -29.566406 15.03125 -27.867188 15.03125 -25.984375 L 15.03125 -3.90625 C 15.03125 -2.757812 14.664062 -1.804688 13.9375 -1.046875 C 13.207031 -0.296875 12.238281 0.078125 11.03125 0.078125 C 9.882812 0.078125 8.929688 -0.296875 8.171875 -1.046875 C 7.421875 -1.804688 7.046875 -2.757812 7.046875 -3.90625 L 7.046875 -38.828125 C 7.046875 -40.023438 7.421875 -40.988281 8.171875 -41.71875 C 8.929688 -42.445312 9.882812 -42.8125 11.03125 -42.8125 C 12.238281 -42.8125 13.207031 -42.445312 13.9375 -41.71875 C 14.664062 -40.988281 15.03125 -40.023438 15.03125 -38.828125 L 15.03125 -37.96875 C 16.695312 -39.632812 18.675781 -40.925781 20.96875 -41.84375 C 23.269531 -42.757812 25.726562 -43.21875 28.34375 -43.21875 Z M 28.34375 -43.21875 "/></g></g></g><g fill="#000000" fill-opacity="1"><g transform="translate(152.194135, 71.460232)"><g><path d="M 25.28125 -7.828125 C 26.21875 -7.828125 27.015625 -7.460938 27.671875 -6.734375 C 28.328125 -6.003906 28.65625 -5.0625 28.65625 -3.90625 C 28.65625 -2.757812 28.222656 -1.820312 27.359375 -1.09375 C 26.492188 -0.363281 25.382812 0 24.03125 0 L 22.625 0 C 20.0625 0 17.722656 -0.664062 15.609375 -2 C 13.503906 -3.332031 11.847656 -5.144531 10.640625 -7.4375 C 9.441406 -9.726562 8.84375 -12.3125 8.84375 -15.1875 L 8.84375 -34.515625 L 5.25 -34.515625 C 4.144531 -34.515625 3.253906 -34.828125 2.578125 -35.453125 C 1.898438 -36.085938 1.5625 -36.875 1.5625 -37.8125 C 1.5625 -38.851562 1.898438 -39.6875 2.578125 -40.3125 C 3.253906 -40.9375 4.144531 -41.25 5.25 -41.25 L 8.84375 -41.25 L 8.84375 -52.53125 C 8.84375 -53.675781 9.207031 -54.613281 9.9375 -55.34375 C 10.664062 -56.070312 11.609375 -56.4375 12.765625 -56.4375 C 13.910156 -56.4375 14.847656 -56.070312 15.578125 -55.34375 C 16.304688 -54.613281 16.671875 -53.675781 16.671875 -52.53125 L 16.671875 -41.25 L 23.328125 -41.25 C 24.421875 -41.25 25.304688 -40.9375 25.984375 -40.3125 C 26.660156 -39.6875 27 -38.851562 27 -37.8125 C 27 -36.875 26.660156 -36.085938 25.984375 -35.453125 C 25.304688 -34.828125 24.421875 -34.515625 23.328125 -34.515625 L 16.671875 -34.515625 L 16.671875 -15.1875 C 16.671875 -13.101562 17.242188 -11.351562 18.390625 -9.9375 C 19.546875 -8.53125 20.957031 -7.828125 22.625 -7.828125 Z M 25.28125 -7.828125 "/></g></g></g><g fill="#000000" fill-opacity="1"><g transform="translate(183.581125, 71.460232)"><g><path d="M 28.34375 -43.21875 C 31.9375 -43.21875 35.164062 -42.429688 38.03125 -40.859375 C 40.90625 -39.296875 43.148438 -37.015625 44.765625 -34.015625 C 46.390625 -31.015625 47.203125 -27.398438 47.203125 -23.171875 L 47.203125 -3.90625 C 47.203125 -2.757812 46.820312 -1.804688 46.0625 -1.046875 C 45.3125 -0.296875 44.363281 0.078125 43.21875 0.078125 C 42.0625 0.078125 41.101562 -0.296875 40.34375 -1.046875 C 39.59375 -1.804688 39.21875 -2.757812 39.21875 -3.90625 L 39.21875 -23.171875 C 39.21875 -27.398438 38.082031 -30.597656 35.8125 -32.765625 C 33.539062 -34.929688 30.523438 -36.015625 26.765625 -36.015625 C 24.578125 -36.015625 22.582031 -35.566406 20.78125 -34.671875 C 18.976562 -33.785156 17.566406 -32.585938 16.546875 -31.078125 C 15.535156 -29.566406 15.03125 -27.867188 15.03125 -25.984375 L 15.03125 -3.90625 C 15.03125 -2.757812 14.664062 -1.804688 13.9375 -1.046875 C 13.207031 -0.296875 12.238281 0.078125 11.03125 0.078125 C 9.882812 0.078125 8.929688 -0.296875 8.171875 -1.046875 C 7.421875 -1.804688 7.046875 -2.757812 7.046875 -3.90625 L 7.046875 -57.140625 C 7.046875 -58.347656 7.421875 -59.316406 8.171875 -60.046875 C 8.929688 -60.773438 9.882812 -61.140625 11.03125 -61.140625 C 12.238281 -61.140625 13.207031 -60.773438 13.9375 -60.046875 C 14.664062 -59.316406 15.03125 -58.347656 15.03125 -57.140625 L 15.03125 -37.96875 C 16.695312 -39.632812 18.675781 -40.925781 20.96875 -41.84375 C 23.269531 -42.757812 25.726562 -43.21875 28.34375 -43.21875 Z M 28.34375 -43.21875 "/></g></g></g><g fill="#000000" fill-opacity="1"><g transform="translate(237.040777, 71.460232)"><g><path d="M 28.03125 -43.296875 C 30.789062 -43.296875 32.953125 -42.875 34.515625 -42.03125 C 36.085938 -41.195312 36.875 -40.15625 36.875 -38.90625 C 36.875 -38.539062 36.847656 -38.28125 36.796875 -38.125 C 36.328125 -36.457031 35.28125 -35.625 33.65625 -35.625 C 33.394531 -35.625 33.003906 -35.675781 32.484375 -35.78125 C 30.398438 -36.144531 28.703125 -36.328125 27.390625 -36.328125 C 23.640625 -36.328125 20.613281 -35.460938 18.3125 -33.734375 C 16.019531 -32.015625 14.875 -29.691406 14.875 -26.765625 L 14.875 -3.90625 C 14.875 -2.65625 14.546875 -1.691406 13.890625 -1.015625 C 13.242188 -0.335938 12.265625 0 10.953125 0 C 9.703125 0 8.738281 -0.320312 8.0625 -0.96875 C 7.382812 -1.625 7.046875 -2.601562 7.046875 -3.90625 L 7.046875 -38.90625 C 7.046875 -40.15625 7.382812 -41.117188 8.0625 -41.796875 C 8.738281 -42.472656 9.703125 -42.8125 10.953125 -42.8125 C 13.566406 -42.8125 14.875 -41.507812 14.875 -38.90625 L 14.875 -37.421875 C 16.4375 -39.242188 18.363281 -40.675781 20.65625 -41.71875 C 22.957031 -42.769531 25.414062 -43.296875 28.03125 -43.296875 Z M 28.03125 -43.296875 "/></g></g></g><g fill="#000000" fill-opacity="1"><g transform="translate(271.949713, 71.460232)"><g><path d="M 26.453125 -43.140625 C 30.472656 -43.140625 34.113281 -42.1875 37.375 -40.28125 C 40.632812 -38.375 43.21875 -35.765625 45.125 -32.453125 C 47.03125 -29.140625 47.984375 -25.445312 47.984375 -21.375 L 47.984375 -3.90625 C 47.984375 -2.757812 47.601562 -1.804688 46.84375 -1.046875 C 46.09375 -0.296875 45.144531 0.078125 44 0.078125 C 42.84375 0.078125 41.882812 -0.296875 41.125 -1.046875 C 40.375 -1.804688 40 -2.757812 40 -3.90625 L 40 -6.8125 C 38.175781 -4.5625 35.957031 -2.8125 33.34375 -1.5625 C 30.738281 -0.3125 27.921875 0.3125 24.890625 0.3125 C 21.128906 0.3125 17.722656 -0.625 14.671875 -2.5 C 11.617188 -4.382812 9.21875 -6.984375 7.46875 -10.296875 C 5.726562 -13.609375 4.859375 -17.300781 4.859375 -21.375 C 4.859375 -25.445312 5.796875 -29.140625 7.671875 -32.453125 C 9.546875 -35.765625 12.140625 -38.375 15.453125 -40.28125 C 18.773438 -42.1875 22.441406 -43.140625 26.453125 -43.140625 Z M 26.453125 -6.734375 C 29.066406 -6.734375 31.429688 -7.367188 33.546875 -8.640625 C 35.660156 -9.921875 37.316406 -11.671875 38.515625 -13.890625 C 39.710938 -16.109375 40.3125 -18.601562 40.3125 -21.375 C 40.3125 -24.132812 39.710938 -26.632812 38.515625 -28.875 C 37.316406 -31.125 35.660156 -32.890625 33.546875 -34.171875 C 31.429688 -35.453125 29.066406 -36.09375 26.453125 -36.09375 C 23.847656 -36.09375 21.488281 -35.453125 19.375 -34.171875 C 17.257812 -32.890625 15.585938 -31.125 14.359375 -28.875 C 13.140625 -26.632812 12.53125 -24.132812 12.53125 -21.375 C 12.53125 -18.601562 13.140625 -16.109375 14.359375 -13.890625 C 15.585938 -11.671875 17.257812 -9.921875 19.375 -8.640625 C 21.488281 -7.367188 23.847656 -6.734375 26.453125 -6.734375 Z M 26.453125 -6.734375 "/></g></g></g></svg>