<svg xmlns="http://www.w3.org/2000/svg" xmlns:xlink="http://www.w3.org/1999/xlink" width="500" zoomAndPan="magnify" viewBox="0 0 375 93.749996" height="125" preserveAspectRatio="xMidYMid meet" version="1.0"><defs><g/></defs><g fill="#f79e00" fill-opacity="1"><g transform="translate(50.147527, 71.456567)"><g><path d="M 45.5 -22.078125 C 45.5 -21.085938 45.160156 -20.265625 44.484375 -19.609375 C 43.804688 -18.960938 42.941406 -18.640625 41.890625 -18.640625 L 12.140625 -18.640625 C 12.710938 -14.984375 14.367188 -12.03125 17.109375 -9.78125 C 19.847656 -7.539062 23.203125 -6.421875 27.171875 -6.421875 C 28.742188 -6.421875 30.375 -6.707031 32.0625 -7.28125 C 33.757812 -7.851562 35.160156 -8.554688 36.265625 -9.390625 C 36.992188 -9.972656 37.851562 -10.265625 38.84375 -10.265625 C 39.832031 -10.265625 40.613281 -10 41.1875 -9.46875 C 42.132812 -8.6875 42.609375 -7.800781 42.609375 -6.8125 C 42.609375 -5.875 42.1875 -5.09375 41.34375 -4.46875 C 39.570312 -3.050781 37.367188 -1.898438 34.734375 -1.015625 C 32.097656 -0.128906 29.578125 0.3125 27.171875 0.3125 C 22.890625 0.3125 19.050781 -0.613281 15.65625 -2.46875 C 12.269531 -4.320312 9.625 -6.890625 7.71875 -10.171875 C 5.8125 -13.460938 4.859375 -17.195312 4.859375 -21.375 C 4.859375 -25.550781 5.757812 -29.296875 7.5625 -32.609375 C 9.363281 -35.929688 11.867188 -38.519531 15.078125 -40.375 C 18.285156 -42.226562 21.925781 -43.15625 26 -43.15625 C 30.019531 -43.15625 33.488281 -42.265625 36.40625 -40.484375 C 39.332031 -38.710938 41.578125 -36.234375 43.140625 -33.046875 C 44.710938 -29.859375 45.5 -26.203125 45.5 -22.078125 Z M 26 -36.421875 C 22.1875 -36.421875 19.09375 -35.375 16.71875 -33.28125 C 14.34375 -31.195312 12.84375 -28.40625 12.21875 -24.90625 L 38.296875 -24.90625 C 37.828125 -28.40625 36.519531 -31.195312 34.375 -33.28125 C 32.238281 -35.375 29.445312 -36.421875 26 -36.421875 Z M 26 -36.421875 "/></g></g></g><g fill="#f79e00" fill-opacity="1"><g transform="translate(98.776029, 71.456567)"><g><path d="M 28.34375 -43.234375 C 31.945312 -43.234375 35.179688 -42.445312 38.046875 -40.875 C 40.921875 -39.3125 43.164062 -37.03125 44.78125 -34.03125 C 46.40625 -31.03125 47.21875 -27.414062 47.21875 -23.1875 L 47.21875 -3.921875 C 47.21875 -2.765625 46.835938 -1.804688 46.078125 -1.046875 C 45.328125 -0.296875 44.378906 0.078125 43.234375 0.078125 C 42.078125 0.078125 41.117188 -0.296875 40.359375 -1.046875 C 39.609375 -1.804688 39.234375 -2.765625 39.234375 -3.921875 L 39.234375 -23.1875 C 39.234375 -27.414062 38.097656 -30.613281 35.828125 -32.78125 C 33.554688 -34.945312 30.539062 -36.03125 26.78125 -36.03125 C 24.59375 -36.03125 22.597656 -35.582031 20.796875 -34.6875 C 18.992188 -33.800781 17.582031 -32.597656 16.5625 -31.078125 C 15.539062 -29.566406 15.03125 -27.875 15.03125 -26 L 15.03125 -3.921875 C 15.03125 -2.765625 14.664062 -1.804688 13.9375 -1.046875 C 13.207031 -0.296875 12.242188 0.078125 11.046875 0.078125 C 9.890625 0.078125 8.929688 -0.296875 8.171875 -1.046875 C 7.421875 -1.804688 7.046875 -2.765625 7.046875 -3.921875 L 7.046875 -38.84375 C 7.046875 -40.039062 7.421875 -41.003906 8.171875 -41.734375 C 8.929688 -42.472656 9.890625 -42.84375 11.046875 -42.84375 C 12.242188 -42.84375 13.207031 -42.472656 13.9375 -41.734375 C 14.664062 -41.003906 15.03125 -40.039062 15.03125 -38.84375 L 15.03125 -37.984375 C 16.707031 -39.648438 18.691406 -40.941406 20.984375 -41.859375 C 23.285156 -42.773438 25.738281 -43.234375 28.34375 -43.234375 Z M 28.34375 -43.234375 "/></g></g></g><g fill="#f79e00" fill-opacity="1"><g transform="translate(152.181237, 71.456567)"><g><path d="M 25.296875 -7.828125 C 26.234375 -7.828125 27.023438 -7.460938 27.671875 -6.734375 C 28.328125 -6.003906 28.65625 -5.066406 28.65625 -3.921875 C 28.65625 -2.765625 28.222656 -1.820312 27.359375 -1.09375 C 26.503906 -0.363281 25.398438 0 24.046875 0 L 22.625 0 C 20.070312 0 17.738281 -0.664062 15.625 -2 C 13.507812 -3.332031 11.847656 -5.144531 10.640625 -7.4375 C 9.441406 -9.738281 8.84375 -12.320312 8.84375 -15.1875 L 8.84375 -34.53125 L 5.25 -34.53125 C 4.15625 -34.53125 3.265625 -34.84375 2.578125 -35.46875 C 1.898438 -36.101562 1.5625 -36.890625 1.5625 -37.828125 C 1.5625 -38.867188 1.898438 -39.703125 2.578125 -40.328125 C 3.265625 -40.953125 4.15625 -41.265625 5.25 -41.265625 L 8.84375 -41.265625 L 8.84375 -52.546875 C 8.84375 -53.691406 9.207031 -54.628906 9.9375 -55.359375 C 10.675781 -56.097656 11.617188 -56.46875 12.765625 -56.46875 C 13.910156 -56.46875 14.847656 -56.097656 15.578125 -55.359375 C 16.316406 -54.628906 16.6875 -53.691406 16.6875 -52.546875 L 16.6875 -41.265625 L 23.34375 -41.265625 C 24.4375 -41.265625 25.320312 -40.953125 26 -40.328125 C 26.675781 -39.703125 27.015625 -38.867188 27.015625 -37.828125 C 27.015625 -36.890625 26.675781 -36.101562 26 -35.46875 C 25.320312 -34.84375 24.4375 -34.53125 23.34375 -34.53125 L 16.6875 -34.53125 L 16.6875 -15.1875 C 16.6875 -13.101562 17.257812 -11.351562 18.40625 -9.9375 C 19.550781 -8.53125 20.957031 -7.828125 22.625 -7.828125 Z M 25.296875 -7.828125 "/></g></g></g><g fill="#f79e00" fill-opacity="1"><g transform="translate(183.582255, 71.456567)"><g><path d="M 28.34375 -43.234375 C 31.945312 -43.234375 35.179688 -42.445312 38.046875 -40.875 C 40.921875 -39.3125 43.164062 -37.03125 44.78125 -34.03125 C 46.40625 -31.03125 47.21875 -27.414062 47.21875 -23.1875 L 47.21875 -3.921875 C 47.21875 -2.765625 46.835938 -1.804688 46.078125 -1.046875 C 45.328125 -0.296875 44.378906 0.078125 43.234375 0.078125 C 42.078125 0.078125 41.117188 -0.296875 40.359375 -1.046875 C 39.609375 -1.804688 39.234375 -2.765625 39.234375 -3.921875 L 39.234375 -23.1875 C 39.234375 -27.414062 38.097656 -30.613281 35.828125 -32.78125 C 33.554688 -34.945312 30.539062 -36.03125 26.78125 -36.03125 C 24.59375 -36.03125 22.597656 -35.582031 20.796875 -34.6875 C 18.992188 -33.800781 17.582031 -32.597656 16.5625 -31.078125 C 15.539062 -29.566406 15.03125 -27.875 15.03125 -26 L 15.03125 -3.921875 C 15.03125 -2.765625 14.664062 -1.804688 13.9375 -1.046875 C 13.207031 -0.296875 12.242188 0.078125 11.046875 0.078125 C 9.890625 0.078125 8.929688 -0.296875 8.171875 -1.046875 C 7.421875 -1.804688 7.046875 -2.765625 7.046875 -3.921875 L 7.046875 -57.171875 C 7.046875 -58.367188 7.421875 -59.332031 8.171875 -60.0625 C 8.929688 -60.789062 9.890625 -61.15625 11.046875 -61.15625 C 12.242188 -61.15625 13.207031 -60.789062 13.9375 -60.0625 C 14.664062 -59.332031 15.03125 -58.367188 15.03125 -57.171875 L 15.03125 -37.984375 C 16.707031 -39.648438 18.691406 -40.941406 20.984375 -41.859375 C 23.285156 -42.773438 25.738281 -43.234375 28.34375 -43.234375 Z M 28.34375 -43.234375 "/></g></g></g><g fill="#f79e00" fill-opacity="1"><g transform="translate(237.065772, 71.456567)"><g><path d="M 28.03125 -43.3125 C 30.800781 -43.3125 32.96875 -42.890625 34.53125 -42.046875 C 36.101562 -41.210938 36.890625 -40.171875 36.890625 -38.921875 C 36.890625 -38.554688 36.863281 -38.296875 36.8125 -38.140625 C 36.34375 -36.460938 35.296875 -35.625 33.671875 -35.625 C 33.410156 -35.625 33.019531 -35.675781 32.5 -35.78125 C 30.40625 -36.15625 28.707031 -36.34375 27.40625 -36.34375 C 23.644531 -36.34375 20.613281 -35.476562 18.3125 -33.75 C 16.019531 -32.03125 14.875 -29.707031 14.875 -26.78125 L 14.875 -3.921875 C 14.875 -2.660156 14.546875 -1.691406 13.890625 -1.015625 C 13.242188 -0.335938 12.269531 0 10.96875 0 C 9.707031 0 8.738281 -0.320312 8.0625 -0.96875 C 7.382812 -1.625 7.046875 -2.609375 7.046875 -3.921875 L 7.046875 -38.921875 C 7.046875 -40.171875 7.382812 -41.132812 8.0625 -41.8125 C 8.738281 -42.5 9.707031 -42.84375 10.96875 -42.84375 C 13.570312 -42.84375 14.875 -41.535156 14.875 -38.921875 L 14.875 -37.4375 C 16.445312 -39.257812 18.378906 -40.691406 20.671875 -41.734375 C 22.972656 -42.785156 25.425781 -43.3125 28.03125 -43.3125 Z M 28.03125 -43.3125 "/></g></g></g><g fill="#f79e00" fill-opacity="1"><g transform="translate(271.990208, 71.456567)"><g><path d="M 26.46875 -43.15625 C 30.488281 -43.15625 34.128906 -42.203125 37.390625 -40.296875 C 40.648438 -38.390625 43.234375 -35.773438 45.140625 -32.453125 C 47.046875 -29.140625 48 -25.445312 48 -21.375 L 48 -3.921875 C 48 -2.765625 47.617188 -1.804688 46.859375 -1.046875 C 46.109375 -0.296875 45.160156 0.078125 44.015625 0.078125 C 42.859375 0.078125 41.898438 -0.296875 41.140625 -1.046875 C 40.390625 -1.804688 40.015625 -2.765625 40.015625 -3.921875 L 40.015625 -6.8125 C 38.191406 -4.570312 35.972656 -2.820312 33.359375 -1.5625 C 30.753906 -0.3125 27.9375 0.3125 24.90625 0.3125 C 21.144531 0.3125 17.738281 -0.625 14.6875 -2.5 C 11.632812 -4.382812 9.234375 -6.984375 7.484375 -10.296875 C 5.734375 -13.609375 4.859375 -17.300781 4.859375 -21.375 C 4.859375 -25.445312 5.796875 -29.140625 7.671875 -32.453125 C 9.554688 -35.773438 12.15625 -38.390625 15.46875 -40.296875 C 18.78125 -42.203125 22.445312 -43.15625 26.46875 -43.15625 Z M 26.46875 -6.734375 C 29.082031 -6.734375 31.445312 -7.375 33.5625 -8.65625 C 35.675781 -9.9375 37.332031 -11.6875 38.53125 -13.90625 C 39.726562 -16.125 40.328125 -18.613281 40.328125 -21.375 C 40.328125 -24.144531 39.726562 -26.648438 38.53125 -28.890625 C 37.332031 -31.140625 35.675781 -32.90625 33.5625 -34.1875 C 31.445312 -35.46875 29.082031 -36.109375 26.46875 -36.109375 C 23.851562 -36.109375 21.488281 -35.46875 19.375 -34.1875 C 17.257812 -32.90625 15.585938 -31.140625 14.359375 -28.890625 C 13.140625 -26.648438 12.53125 -24.144531 12.53125 -21.375 C 12.53125 -18.613281 13.140625 -16.125 14.359375 -13.90625 C 15.585938 -11.6875 17.257812 -9.9375 19.375 -8.65625 C 21.488281 -7.375 23.851562 -6.734375 26.46875 -6.734375 Z M 26.46875 -6.734375 "/></g></g></g></svg>