<svg xmlns="http://www.w3.org/2000/svg" xmlns:xlink="http://www.w3.org/1999/xlink" width="256" zoomAndPan="magnify" viewBox="0 0 192 191.999996" height="256" preserveAspectRatio="xMidYMid meet" version="1.0"><defs><g/></defs><g fill="#f79e00" fill-opacity="1"><g transform="translate(46.206581, 147.270305)"><g><path d="M 93.15625 -45.21875 C 93.15625 -43.1875 92.457031 -41.5 91.0625 -40.15625 C 89.675781 -38.820312 87.914062 -38.15625 85.78125 -38.15625 L 24.859375 -38.15625 C 26.023438 -30.675781 29.414062 -24.632812 35.03125 -20.03125 C 40.644531 -15.4375 47.515625 -13.140625 55.640625 -13.140625 C 58.847656 -13.140625 62.1875 -13.726562 65.65625 -14.90625 C 69.132812 -16.082031 71.992188 -17.523438 74.234375 -19.234375 C 75.734375 -20.410156 77.5 -21 79.53125 -21 C 81.5625 -21 83.164062 -20.46875 84.34375 -19.40625 C 86.269531 -17.800781 87.234375 -15.984375 87.234375 -13.953125 C 87.234375 -12.023438 86.375 -10.421875 84.65625 -9.140625 C 81.019531 -6.253906 76.503906 -3.898438 71.109375 -2.078125 C 65.710938 -0.265625 60.554688 0.640625 55.640625 0.640625 C 46.867188 0.640625 39.007812 -1.253906 32.0625 -5.046875 C 25.113281 -8.847656 19.6875 -14.113281 15.78125 -20.84375 C 11.882812 -27.582031 9.9375 -35.226562 9.9375 -43.78125 C 9.9375 -52.320312 11.78125 -59.988281 15.46875 -66.78125 C 19.15625 -73.570312 24.285156 -78.863281 30.859375 -82.65625 C 37.441406 -86.445312 44.898438 -88.34375 53.234375 -88.34375 C 61.460938 -88.34375 68.566406 -86.523438 74.546875 -82.890625 C 80.535156 -79.265625 85.132812 -74.191406 88.34375 -67.671875 C 91.550781 -61.148438 93.15625 -53.664062 93.15625 -45.21875 Z M 53.234375 -74.5625 C 45.429688 -74.5625 39.097656 -72.421875 34.234375 -68.140625 C 29.367188 -63.867188 26.296875 -58.148438 25.015625 -50.984375 L 78.40625 -50.984375 C 77.445312 -58.148438 74.773438 -63.867188 70.390625 -68.140625 C 66.003906 -72.421875 60.285156 -74.5625 53.234375 -74.5625 Z M 53.234375 -74.5625 "/></g></g></g></svg>